<svg width="2613" height="1641" xmlns="http://www.w3.org/2000/svg" xmlns:xlink="http://www.w3.org/1999/xlink" xml:space="preserve" overflow="hidden"><defs><linearGradient x1="1225" y1="1408.5" x2="1587" y2="1408.5" gradientUnits="userSpaceOnUse" spreadMethod="reflect" id="fill0"><stop offset="0" stop-color="#7030A0" stop-opacity="1"/><stop offset="0.15" stop-color="#0070C0" stop-opacity="1"/><stop offset="0.32" stop-color="#00B050" stop-opacity="1"/><stop offset="0.49" stop-color="#FFFF00" stop-opacity="1"/><stop offset="0.66" stop-color="#FFC000" stop-opacity="1"/><stop offset="0.81" stop-color="#FF0000" stop-opacity="1"/><stop offset="0.99" stop-color="#C00000" stop-opacity="1"/><stop offset="1" stop-color="#C00000" stop-opacity="1"/></linearGradient></defs><g transform="translate(-1017 -545)"><g><rect x="1225" y="746" width="362" height="1325" fill="url(#fill0)"/><path d="M1306 2066.68C1321.03 2069.07 1336.06 2071.47 1352.14 2070.27 1368.22 2069.07 1386.39 2076.86 1402.47 2059.49 1418.55 2042.13 1432.53 2034.35 1448.61 1966.09 1464.69 1897.84 1480.76 1777.5 1498.94 1649.97 1517.11 1522.45 1540.18 1310.5 1557.66 1200.94 1575.14 1091.37 1590.52 1044.67 1603.8 992.587 1617.08 940.499 1625.47 912.958 1637.35 888.411 1649.24 863.864 1661.12 847.698 1675.1 845.303 1689.08 842.908 1705.16 854.883 1721.24 874.042 1737.32 893.2 1743.61 903.977 1771.57 960.256 1799.53 1016.54 1835.88 1109.34 1889.01 1211.72 1942.14 1314.1 2019.74 1477.54 2090.34 1574.54 2160.94 1671.53 2245.53 1740.38 2312.64 1793.67 2379.75 1846.95 2414.7 1863.71 2493 1894.25 2571.29 1924.78 2677.55 1955.32 2782.4 1976.87 2887.26 1998.43 3022.88 2013.39 3122.15 2023.57 3221.41 2033.75 3299.71 2035.84 3378 2037.94" stroke="#042433" stroke-width="13.75" stroke-linecap="butt" stroke-linejoin="miter" stroke-miterlimit="8" stroke-opacity="1" fill="none" fill-rule="evenodd"/><path d="M1022.5 2060.04 3502.85 2060.04 3502.85 2082.96 1022.5 2082.96ZM3491.39 2037.13 3560.14 2071.5 3491.39 2105.88Z" fill="#000000" fill-rule="nonzero" fill-opacity="1"/><path d="M11.4583-2.6362e-06 11.4587 1511.34-11.458 1511.34-11.4583 2.6362e-06ZM34.3753 1499.88 0.000360892 1568.63-34.3747 1499.88Z" fill="#000000" fill-rule="nonzero" fill-opacity="1" transform="matrix(1 0 0 -1 1116.5 2184.13)"/><path d="M1857.56 1317.84C1854.39 1259.04 1855.27 1286.72 1857.56 1185.03 1857.75 1176.92 1858.2 1168.81 1859.03 1160.88 1859.68 1154.65 1861.96 1142.77 1861.96 1142.77 1862.03 1149.44 1861.52 1266.63 1864.89 1311.8 1865.13 1314.95 1865.87 1317.84 1866.36 1320.86 1868.94 1307.57 1869.49 1306.69 1870.76 1293.69 1873.34 1267.13 1870.84 1284.15 1873.69 1266.53 1874.18 1271.56 1874.61 1276.61 1875.15 1281.62 1875.59 1285.67 1875.91 1297.58 1876.62 1293.69 1878.71 1282.23 1878.71 1269.59 1879.55 1257.47 1880.67 1241.41 1881.37 1225.23 1882.48 1209.17 1882.97 1202.13 1883.57 1195.11 1883.95 1188.04 1887.51 1122.12 1883.51 1182.26 1886.88 1133.71 1889.81 1154.84 1893.92 1175.42 1895.68 1197.1 1896.65 1209.17 1897.55 1221.28 1898.61 1233.32 1899.5 1243.42 1900.72 1253.39 1901.54 1263.51 1902.19 1271.51 1902.18 1279.72 1903.01 1287.66 1911.72 1371.37 1900.78 1241.98 1907.4 1323.88 1907.89 1320.86 1908.57 1317.94 1908.87 1314.82 1911.11 1291.8 1909.77 1291.64 1911.8 1266.53 1914.4 1234.45 1914.72 1245.51 1917.66 1215.21 1918.34 1208.23 1918.45 1201.06 1919.13 1194.08 1919.92 1185.94 1921.27 1178.07 1922.06 1169.93 1925.81 1131.35 1921.36 1165.63 1924.99 1130.69 1925.84 1122.58 1927.26 1114.73 1927.93 1106.54 1928.41 1100.51 1928.77 1094.42 1929.39 1088.43 1930.24 1080.32 1931.82 1072.52 1932.32 1064.28 1932.81 1056.23 1934.01 1032.04 1933.79 1040.14 1933.08 1066.33 1932.09 1092.5 1930.86 1118.62 1930.14 1133.77 1928.74 1148.76 1927.93 1163.9 1927.28 1175.94 1926.95 1188.04 1926.46 1200.12 1926.95 1226.28 1927.08 1252.48 1927.93 1278.6 1928.06 1282.74 1929.09 1294.77 1929.39 1290.67 1930.66 1273.74 1930.37 1256.46 1930.86 1239.36 1931.35 1252.44 1931.75 1265.53 1932.32 1278.6 1933.55 1306.4 1932.53 1298.01 1935.26 1314.82 1949.41 1295.39 1941.15 1298.32 1945.52 1311.8 1946.67 1315.36 1948.45 1317.84 1949.91 1320.86 1953.67 1274.44 1948.63 1325.77 1954.31 1290.67 1955.1 1285.81 1954.9 1280.39 1955.78 1275.58 1956.4 1272.18 1957.92 1269.77 1958.71 1266.53 1959.4 1263.68 1959.69 1260.49 1960.17 1257.47 1965.73 1291.81 1962.4 1267.71 1960.17 1348.03 1959.95 1356.12 1959.27 1364.14 1958.71 1372.17 1957.77 1385.69 1957.04 1392.38 1955.78 1405.38 1956.27 1410.41 1955.48 1416.84 1957.24 1420.47 1958.34 1422.72 1957.24 1410.41 1958.71 1411.42 1960.78 1412.84 1960.66 1419.46 1961.64 1423.49 1962.13 1430.53 1962.74 1437.54 1963.11 1444.62 1963.72 1456.67 1963.15 1469.09 1964.57 1480.84 1965.06 1484.87 1965.51 1472.77 1966.04 1468.77 1966.97 1461.7 1968.05 1454.72 1968.97 1447.64 1970.01 1439.62 1971.16 1431.64 1971.9 1423.49 1973.57 1405.11 1973.82 1380.85 1974.83 1363.12 1975.12 1358.02 1975.81 1353.06 1976.3 1348.03 1976.79 1335.95 1977.21 1323.86 1977.77 1311.8 1978.18 1302.73 1977.83 1293.28 1979.23 1284.64 1979.72 1281.62 1980.27 1290.63 1980.7 1293.69 1981.25 1297.68 1981.67 1301.74 1982.16 1305.77 1983.36 1328.01 1983.3 1331.34 1985.09 1351.04 1986.01 1361.13 1986.45 1371.5 1988.03 1381.23 1991.46 1402.47 1986.99 1376.25 1992.42 1402.36 1998.89 1433.45 1987.1 1383.44 1996.82 1423.49 1997.8 1418.46 1998.83 1413.47 1999.75 1408.4 2000.3 1405.42 2001.22 1396.16 2001.22 1399.34 2001.22 1414.47 2000.24 1429.53 1999.75 1444.62 1999.26 1476.82 1998.29 1509 1998.29 1541.21 1998.29 1545.36 1999 1525.29 1999.75 1529.14 2001.4 1537.6 2000.73 1547.25 2001.22 1556.3 2001.71 1585.48 2001.6 1614.73 2002.68 1643.84 2002.8 1647.01 2003.73 1637.85 2004.15 1634.79 2004.7 1630.8 2005.18 1626.76 2005.62 1622.71 2009.14 1590.08 2004.54 1623.72 2010.01 1595.55 2011.16 1589.64 2011.97 1583.47 2012.95 1577.43 2013.43 1574.42 2014.04 1571.47 2014.41 1568.38 2018.55 1534.28 2016.55 1552.37 2020.28 1514.05 2024.7 1468.53 2019.07 1525.24 2023.21 1486.88 2023.75 1481.87 2024.18 1476.82 2024.67 1471.79 2025.16 1492.92 2024.69 1514.23 2026.14 1535.17 2026.63 1542.22 2027.18 1521.1 2027.6 1514.05 2028.15 1505 2028.63 1495.94 2029.07 1486.88 2029.89 1470.09 2030.6 1446.83 2032 1429.53 2032.33 1425.43 2032.98 1421.48 2033.47 1417.45 2044.55 1455.48 2032.58 1410.58 2039.33 1447.64 2039.95 1451.03 2041.42 1453.51 2042.26 1456.69 2044.36 1464.59 2046.17 1472.79 2048.13 1480.84 2049.1 1484.87 2050.37 1488.65 2051.06 1492.92 2051.55 1495.93 2052.1 1498.91 2052.52 1501.97 2053.08 1505.96 2053.2 1510.23 2053.99 1514.05 2054.68 1517.38 2055.94 1520.08 2056.92 1523.1 2058.08 1511.13 2059.55 1494.78 2061.32 1483.86L2062.79 1474.8C2064.25 1480.84 2065.97 1486.65 2067.18 1492.92 2067.93 1496.77 2068.1 1508.98 2068.65 1504.99 2070.13 1494.3 2069.55 1482.84 2070.11 1471.79 2070.53 1463.72 2071.09 1455.69 2071.58 1447.64 2072.07 1454.68 2072.21 1461.86 2073.05 1468.77 2073.68 1474.02 2075.85 1478.45 2075.98 1483.86 2076.71 1514.06 2075.65 1519.73 2073.05 1541.21 2073.53 1551.27 2073.61 1561.46 2074.51 1571.4 2075.08 1577.65 2077.44 1589.51 2077.44 1589.51 2085.84 1560.71 2078.43 1589.43 2084.77 1550.27L2087.7 1532.16C2092.47 1571.43 2085.38 1509.62 2090.64 1610.64 2090.97 1616.97 2093.57 1628.75 2093.57 1628.75 2095.38 1617.56 2094.34 1622.54 2096.5 1613.66" stroke="#7F7F7F" stroke-width="6.875" stroke-linecap="butt" stroke-linejoin="miter" stroke-miterlimit="8" stroke-opacity="1" fill="none" fill-rule="evenodd"/><path d="M2098.57 1702.16C2095.39 1670.23 2096.27 1685.26 2098.57 1630.05 2098.76 1625.65 2099.22 1621.25 2100.04 1616.94 2100.69 1613.56 2102.99 1607.11 2102.99 1607.11 2103.06 1610.73 2102.54 1674.35 2105.93 1698.88 2106.17 1700.59 2106.91 1702.16 2107.4 1703.79 2110 1696.58 2110.55 1696.1 2111.82 1689.05 2114.41 1674.62 2111.9 1683.86 2114.76 1674.3 2115.25 1677.03 2115.69 1679.77 2116.24 1682.49 2116.68 1684.69 2117 1691.15 2117.71 1689.05 2119.8 1682.82 2119.81 1675.96 2120.65 1669.38 2121.77 1660.66 2122.48 1651.88 2123.6 1643.16 2124.09 1639.34 2124.68 1635.53 2125.07 1631.69 2128.64 1595.9 2124.63 1628.55 2128.01 1602.19 2130.96 1613.66 2135.08 1624.84 2136.84 1636.6 2137.82 1643.16 2138.72 1649.73 2139.79 1656.27 2140.68 1661.75 2141.91 1667.16 2142.73 1672.66 2143.38 1677 2143.37 1681.46 2144.2 1685.77 2152.95 1731.21 2141.96 1660.97 2148.62 1705.43 2149.11 1703.79 2149.79 1702.21 2150.09 1700.52 2152.34 1688.02 2150.99 1687.93 2153.03 1674.3 2155.64 1656.88 2155.97 1662.88 2158.92 1646.44 2159.6 1642.65 2159.71 1638.75 2160.39 1634.97 2161.19 1630.55 2162.54 1626.27 2163.34 1621.86 2167.1 1600.91 2162.63 1619.52 2166.28 1600.55 2167.13 1596.15 2168.56 1591.88 2169.23 1587.44 2169.72 1584.16 2170.07 1580.86 2170.7 1577.61 2171.55 1573.2 2173.14 1568.97 2173.64 1564.5 2174.13 1560.13 2175.33 1546.99 2175.11 1551.39 2174.4 1565.61 2173.41 1579.82 2172.17 1594 2171.45 1602.22 2170.05 1610.36 2169.23 1618.58 2168.57 1625.12 2168.24 1631.69 2167.75 1638.24 2168.24 1652.45 2168.38 1666.67 2169.23 1680.85 2169.36 1683.1 2170.39 1689.63 2170.7 1687.41 2171.97 1678.21 2171.68 1668.83 2172.17 1659.55 2172.66 1666.65 2173.06 1673.76 2173.64 1680.85 2174.87 1695.94 2173.85 1691.39 2176.59 1700.52 2190.8 1689.97 2182.51 1691.56 2186.89 1698.88 2188.04 1700.81 2189.83 1702.16 2191.31 1703.79 2195.08 1678.59 2190.02 1706.46 2195.72 1687.41 2196.51 1684.76 2196.31 1681.82 2197.19 1679.21 2197.81 1677.37 2199.35 1676.06 2200.14 1674.3 2200.83 1672.75 2201.12 1671.02 2201.61 1669.38 2207.19 1688.02 2203.85 1674.94 2201.61 1718.54 2201.38 1722.94 2200.7 1727.29 2200.14 1731.65 2199.2 1738.99 2198.46 1742.62 2197.19 1749.68 2197.68 1752.41 2196.9 1755.9 2198.67 1757.87 2199.76 1759.09 2198.67 1752.41 2200.14 1752.96 2202.22 1753.73 2202.1 1757.33 2203.08 1759.51 2203.57 1763.34 2204.19 1767.14 2204.55 1770.98 2205.17 1777.53 2204.59 1784.27 2206.02 1790.65 2206.52 1792.83 2206.96 1786.27 2207.5 1784.09 2208.44 1780.26 2209.52 1776.47 2210.44 1772.62 2211.48 1768.27 2212.64 1763.94 2213.38 1759.51 2215.06 1749.54 2215.31 1736.36 2216.33 1726.74 2216.62 1723.97 2217.31 1721.27 2217.8 1718.54 2218.29 1711.99 2218.71 1705.43 2219.27 1698.88 2219.69 1693.95 2219.34 1688.82 2220.74 1684.13 2221.23 1682.49 2221.79 1687.38 2222.22 1689.05 2222.77 1691.21 2223.2 1693.42 2223.69 1695.6 2224.89 1707.68 2224.83 1709.48 2226.63 1720.18 2227.55 1725.66 2227.99 1731.28 2229.58 1736.57 2233.03 1748.1 2228.54 1733.87 2233.99 1748.04 2240.49 1764.92 2228.64 1737.77 2238.41 1759.51 2239.39 1756.78 2240.42 1754.07 2241.35 1751.32 2241.9 1749.7 2242.82 1744.67 2242.82 1746.4 2242.82 1754.61 2241.84 1762.79 2241.35 1770.98 2240.86 1788.46 2239.88 1805.94 2239.88 1823.42 2239.88 1825.68 2240.6 1814.78 2241.35 1816.87 2243 1821.46 2242.33 1826.7 2242.82 1831.62 2243.31 1847.46 2243.2 1863.34 2244.3 1879.14 2244.41 1880.87 2245.34 1875.89 2245.77 1874.23 2246.32 1872.06 2246.8 1869.87 2247.24 1867.67 2250.78 1849.96 2246.16 1868.22 2251.66 1852.92 2252.81 1849.71 2253.62 1846.37 2254.6 1843.09 2255.09 1841.45 2255.69 1839.85 2256.07 1838.17 2260.23 1819.66 2258.22 1829.48 2261.96 1808.68 2266.4 1783.96 2260.75 1814.76 2264.9 1793.93 2265.45 1791.21 2265.88 1788.46 2266.37 1785.73 2266.87 1797.2 2266.39 1808.78 2267.85 1820.15 2268.34 1823.97 2268.89 1812.51 2269.32 1808.68 2269.87 1803.77 2270.35 1798.85 2270.79 1793.93 2271.61 1784.81 2272.33 1772.18 2273.73 1762.79 2274.07 1760.57 2274.72 1758.42 2275.21 1756.23 2286.33 1776.88 2274.32 1752.5 2281.09 1772.62 2281.72 1774.47 2283.19 1775.81 2284.04 1777.54 2286.14 1781.83 2287.96 1786.28 2289.93 1790.65 2290.91 1792.83 2292.18 1794.89 2292.87 1797.2 2293.36 1798.84 2293.92 1800.46 2294.34 1802.12 2294.9 1804.29 2295.02 1806.61 2295.81 1808.68 2296.51 1810.49 2297.78 1811.95 2298.76 1813.59 2299.93 1807.09 2301.4 1798.22 2303.17 1792.29L2304.65 1787.37C2306.12 1790.65 2307.84 1793.8 2309.06 1797.2 2309.81 1799.3 2309.98 1805.92 2310.53 1803.76 2312.02 1797.96 2311.44 1791.73 2312 1785.73 2312.42 1781.35 2312.99 1776.99 2313.48 1772.62 2313.97 1776.45 2314.11 1780.35 2314.95 1784.09 2315.59 1786.95 2317.76 1789.35 2317.89 1792.29 2318.63 1808.68 2317.57 1811.76 2314.95 1823.42 2315.44 1828.89 2315.51 1834.42 2316.42 1839.81 2316.99 1843.21 2319.36 1849.65 2319.36 1849.65 2327.79 1834.01 2320.36 1849.6 2326.72 1828.34L2329.67 1818.51C2334.46 1839.83 2327.33 1806.27 2332.61 1861.12 2332.94 1864.55 2335.56 1870.95 2335.56 1870.95 2337.38 1864.87 2336.33 1867.58 2338.5 1862.76" stroke="#7F7F7F" stroke-width="6.875" stroke-linecap="butt" stroke-linejoin="miter" stroke-miterlimit="8" stroke-opacity="1" fill="none" fill-rule="evenodd"/><rect x="2280" y="1304" width="100" height="201" fill="#80350E" fill-opacity="1"/><rect x="2380" y="933" width="100" height="572" fill="#215F9A" fill-opacity="1"/><rect x="2480" y="1136" width="119" height="369" fill="#7F7F7F" fill-opacity="1"/><rect x="2581" y="933" width="100" height="572" fill="#215F9A" fill-opacity="1"/><rect x="2681" y="1304" width="100" height="201" fill="#80350E" fill-opacity="1"/><rect x="2763" y="1304" width="119" height="201" fill="#80350E" fill-opacity="1"/><rect x="2882" y="1136" width="100" height="369" fill="#7F7F7F" fill-opacity="1"/><rect x="2982" y="933" width="100" height="572" fill="#215F9A" fill-opacity="1"/><rect x="3082" y="1136" width="100" height="369" fill="#7F7F7F" fill-opacity="1"/></g></g></svg>